<svg xmlns="http://www.w3.org/2000/svg" viewBox="0 0 64 64" role="img" aria-label="AGRONOV">
  <defs>
    <linearGradient id="sky" x1="0" y1="0" x2="0" y2="1">
      <stop offset="0" stop-color="#4f74d6" />
      <stop offset="0.36" stop-color="#9a4fd0" />
      <stop offset="0.68" stop-color="#ff6f91" />
      <stop offset="1" stop-color="#ffb347" />
    </linearGradient>
    <clipPath id="round"><rect width="64" height="64" rx="15" /></clipPath>
  </defs>
  <g clip-path="url(#round)">
    <rect width="64" height="64" fill="url(#sky)" />
    <!-- sun -->
    <circle cx="30" cy="33" r="13" fill="#ffe08a" opacity="0.92" />
    <!-- sea shimmer -->
    <g fill="#2a1338">
      <rect x="0" y="52" width="64" height="12" opacity="0.35" />
      <rect x="8" y="49" width="18" height="2.4" rx="1.2" opacity="0.5" />
      <rect x="34" y="52" width="22" height="2.4" rx="1.2" opacity="0.5" />
    </g>
    <!-- palm silhouette -->
    <g fill="#2a1338">
      <path d="M39 54 C37 44 38 34 43 26 L46 27 C42 35 41 45 43 54 Z" />
      <path d="M44 25 C36 19 26 18 18 22 C27 20 36 23 43 29 Z" />
      <path d="M44 25 C39 16 39 9 44 4 C42 12 44 20 46 28 Z" />
      <path d="M44 25 C52 18 60 19 66 24 C57 20 49 22 45 29 Z" />
      <path d="M44 25 C50 15 58 12 65 12 C57 15 50 20 46 28 Z" />
      <path d="M44 25 C36 15 27 12 20 12 C29 15 38 19 43 28 Z" />
    </g>
  </g>
</svg>
