<?xml version="1.0" encoding="UTF-8" standalone="no"?>
<!DOCTYPE svg PUBLIC "-//W3C//DTD SVG 1.1//EN" "http://www.w3.org/Graphics/SVG/1.1/DTD/svg11.dtd">
<svg width="100%" height="100%" viewBox="0 1400 3402 325" version="1.1" xmlns="http://www.w3.org/2000/svg" xmlns:xlink="http://www.w3.org/1999/xlink" xml:space="preserve" xmlns:serif="http://www.serif.com/" style="fill-rule:evenodd;clip-rule:evenodd;stroke-linejoin:round;stroke-miterlimit:2;">
    <g transform="matrix(0.439907,0,0,0.439907,-301.8103,-1242.16942)">
        <g transform="matrix(889.166879,0,0,889.166879,664.370079,6717.519685)">
            <path d="M0.624,-0L0.761,0L0.458,-0.748L0.328,-0.748L0.025,0L0.162,0C0.162,0 0.167,-0.005 0.178,-0.015C0.188,-0.025 0.202,-0.037 0.219,-0.049C0.236,-0.062 0.257,-0.074 0.281,-0.087C0.306,-0.099 0.333,-0.109 0.365,-0.117C0.396,-0.125 0.431,-0.128 0.468,-0.126C0.505,-0.124 0.544,-0.117 0.585,-0.103L0.626,-0L0.624,-0ZM0.528,-0.243C0.491,-0.246 0.456,-0.245 0.424,-0.239C0.392,-0.233 0.364,-0.225 0.34,-0.214C0.316,-0.203 0.295,-0.19 0.277,-0.177C0.259,-0.164 0.245,-0.151 0.234,-0.139C0.223,-0.127 0.214,-0.116 0.208,-0.107C0.202,-0.098 0.199,-0.093 0.199,-0.093L0.394,-0.586L0.529,-0.243L0.528,-0.243Z" style="fill-rule:nonzero;"/>
        </g>
        <g transform="matrix(889.166879,0,0,889.166879,1293.038849,6717.519685)">
            <path d="M0.672,-0.641L0.672,-0.756L0.416,-0.756C0.347,-0.756 0.283,-0.739 0.225,-0.705C0.167,-0.671 0.12,-0.624 0.086,-0.566C0.052,-0.507 0.034,-0.444 0.034,-0.375C0.034,-0.306 0.051,-0.242 0.086,-0.183C0.12,-0.125 0.167,-0.078 0.225,-0.044C0.283,-0.01 0.347,0.008 0.416,0.008C0.485,0.008 0.549,-0.009 0.608,-0.044C0.666,-0.078 0.713,-0.125 0.747,-0.183C0.781,-0.241 0.799,-0.305 0.799,-0.375L0.799,-0.549L0.672,-0.549L0.417,-0.372L0.417,-0.218L0.673,-0.395L0.673,-0.374C0.673,-0.326 0.662,-0.281 0.639,-0.24C0.616,-0.199 0.585,-0.167 0.546,-0.143C0.507,-0.119 0.464,-0.107 0.417,-0.107C0.371,-0.107 0.328,-0.119 0.289,-0.143C0.25,-0.167 0.219,-0.199 0.196,-0.24C0.173,-0.281 0.162,-0.325 0.162,-0.374C0.162,-0.422 0.173,-0.467 0.196,-0.508C0.219,-0.549 0.25,-0.581 0.289,-0.605C0.328,-0.629 0.371,-0.641 0.417,-0.641L0.673,-0.641L0.672,-0.641Z" style="fill-rule:nonzero;"/>
        </g>
        <g transform="matrix(889.166879,0,0,889.166879,2033.287643,6717.519685)">
            <path d="M0.689,-0C0.67,-0.015 0.653,-0.033 0.638,-0.053C0.623,-0.073 0.606,-0.1 0.587,-0.132C0.567,-0.165 0.551,-0.19 0.537,-0.209C0.523,-0.228 0.506,-0.243 0.487,-0.255C0.467,-0.267 0.445,-0.273 0.419,-0.273C0.491,-0.288 0.55,-0.314 0.595,-0.353C0.64,-0.392 0.663,-0.445 0.664,-0.513C0.665,-0.563 0.654,-0.606 0.632,-0.64C0.61,-0.675 0.581,-0.701 0.546,-0.719C0.511,-0.737 0.473,-0.746 0.434,-0.747L0.035,-0.747L0.035,0.001L0.161,0.001L0.161,-0.631L0.381,-0.631C0.426,-0.631 0.462,-0.622 0.489,-0.605C0.516,-0.588 0.531,-0.561 0.535,-0.527C0.539,-0.492 0.531,-0.461 0.511,-0.435C0.492,-0.409 0.466,-0.389 0.436,-0.375C0.405,-0.361 0.375,-0.354 0.347,-0.354L0.261,-0.354L0.261,-0.239L0.346,-0.239C0.361,-0.239 0.375,-0.233 0.388,-0.222C0.401,-0.211 0.412,-0.197 0.421,-0.18C0.431,-0.164 0.443,-0.141 0.457,-0.113C0.471,-0.084 0.483,-0.061 0.494,-0.044C0.504,-0.026 0.516,-0.011 0.529,0.001L0.691,0.001L0.689,-0Z" style="fill-rule:nonzero;"/>
        </g>
        <g transform="matrix(889.166879,0,0,889.166879,2633.301621,6717.519685)">
            <path d="M0.416,-0.756C0.347,-0.756 0.283,-0.739 0.225,-0.704C0.167,-0.67 0.12,-0.623 0.086,-0.565C0.052,-0.507 0.034,-0.443 0.034,-0.374C0.034,-0.305 0.051,-0.241 0.086,-0.182C0.12,-0.124 0.167,-0.077 0.225,-0.043C0.283,-0.009 0.347,0.009 0.416,0.009C0.485,0.009 0.549,-0.008 0.608,-0.043C0.666,-0.077 0.713,-0.124 0.747,-0.182C0.781,-0.24 0.799,-0.304 0.799,-0.374C0.799,-0.443 0.782,-0.507 0.747,-0.565C0.713,-0.623 0.666,-0.67 0.608,-0.704C0.55,-0.738 0.486,-0.756 0.416,-0.756ZM0.416,-0.641C0.463,-0.641 0.505,-0.629 0.545,-0.605C0.584,-0.581 0.615,-0.549 0.638,-0.508C0.661,-0.467 0.672,-0.423 0.672,-0.374C0.672,-0.325 0.661,-0.281 0.638,-0.24C0.615,-0.199 0.584,-0.167 0.545,-0.143C0.506,-0.119 0.463,-0.107 0.416,-0.107C0.37,-0.107 0.327,-0.119 0.288,-0.143C0.249,-0.167 0.218,-0.199 0.195,-0.24C0.172,-0.281 0.161,-0.325 0.161,-0.374C0.161,-0.422 0.172,-0.467 0.195,-0.508C0.218,-0.549 0.249,-0.581 0.288,-0.605C0.327,-0.629 0.37,-0.641 0.416,-0.641Z" style="fill-rule:nonzero;"/>
        </g>
        <g transform="matrix(889.166879,0,0,889.166879,3373.550414,6717.519685)">
            <path d="M0.49,-0L0.617,-0L0.617,-0.748L0.49,-0.748L0.49,-0.583L0.161,-0.748L0.035,-0.748L0.035,0L0.161,0L0.161,-0.612L0.49,-0.443L0.49,-0Z" style="fill-rule:nonzero;"/>
        </g>
        <g transform="matrix(889.166879,0,0,889.166879,3952.29038,6717.519685)">
            <path d="M0.416,-0.756C0.347,-0.756 0.283,-0.739 0.225,-0.704C0.167,-0.67 0.12,-0.623 0.086,-0.565C0.052,-0.507 0.034,-0.443 0.034,-0.374C0.034,-0.305 0.051,-0.241 0.086,-0.182C0.12,-0.124 0.167,-0.077 0.225,-0.043C0.283,-0.009 0.347,0.009 0.416,0.009C0.485,0.009 0.549,-0.008 0.608,-0.043C0.666,-0.077 0.713,-0.124 0.747,-0.182C0.781,-0.24 0.799,-0.304 0.799,-0.374C0.799,-0.443 0.782,-0.507 0.747,-0.565C0.713,-0.623 0.666,-0.67 0.608,-0.704C0.55,-0.738 0.486,-0.756 0.416,-0.756ZM0.416,-0.641C0.463,-0.641 0.505,-0.629 0.545,-0.605C0.584,-0.581 0.615,-0.549 0.638,-0.508C0.661,-0.467 0.672,-0.423 0.672,-0.374C0.672,-0.325 0.661,-0.281 0.638,-0.24C0.615,-0.199 0.584,-0.167 0.545,-0.143C0.506,-0.119 0.463,-0.107 0.416,-0.107C0.37,-0.107 0.327,-0.119 0.288,-0.143C0.249,-0.167 0.218,-0.199 0.195,-0.24C0.172,-0.281 0.161,-0.325 0.161,-0.374C0.161,-0.422 0.172,-0.467 0.195,-0.508C0.218,-0.549 0.249,-0.581 0.288,-0.605C0.327,-0.629 0.37,-0.641 0.416,-0.641Z" style="fill-rule:nonzero;"/>
        </g>
        <g transform="matrix(889.166879,0,0,889.166879,4623.073012,6717.519685)">
            <path d="M0.624,-0.748L0.393,-0.162L0.162,-0.748L0.025,-0.748L0.328,0L0.458,0L0.761,-0.748L0.624,-0.748Z" style="fill-rule:nonzero;"/>
        </g>
        <g transform="matrix(651.056665,0,0,651.056665,5579.101072,6717.519685)">
            <path d="M0.672,-0.641L0.672,-0.756L0.416,-0.756C0.347,-0.756 0.283,-0.739 0.225,-0.705C0.167,-0.671 0.12,-0.624 0.086,-0.566C0.052,-0.507 0.034,-0.444 0.034,-0.375C0.034,-0.306 0.051,-0.242 0.086,-0.183C0.12,-0.125 0.167,-0.078 0.225,-0.044C0.283,-0.01 0.347,0.008 0.416,0.008C0.485,0.008 0.549,-0.009 0.608,-0.044C0.666,-0.078 0.713,-0.125 0.747,-0.183C0.781,-0.241 0.799,-0.305 0.799,-0.375L0.799,-0.549L0.672,-0.549L0.417,-0.372L0.417,-0.218L0.673,-0.395L0.673,-0.374C0.673,-0.326 0.662,-0.281 0.639,-0.24C0.616,-0.199 0.585,-0.167 0.546,-0.143C0.507,-0.119 0.464,-0.107 0.417,-0.107C0.371,-0.107 0.328,-0.119 0.289,-0.143C0.25,-0.167 0.219,-0.199 0.196,-0.24C0.173,-0.281 0.162,-0.325 0.162,-0.374C0.162,-0.422 0.173,-0.467 0.196,-0.508C0.219,-0.549 0.25,-0.581 0.289,-0.605C0.328,-0.629 0.371,-0.641 0.417,-0.641L0.673,-0.641L0.672,-0.641Z" style="fill:rgb(102,102,102);fill-rule:nonzero;"/>
        </g>
        <g transform="matrix(651.056665,0,0,651.056665,6121.118462,6717.519685)">
            <path d="M0.524,-0.115L0.16,-0.115L0.16,-0.747L0.034,-0.747L0.034,0.001L0.524,0.001L0.524,-0.115Z" style="fill:rgb(102,102,102);fill-rule:nonzero;"/>
        </g>
        <g transform="matrix(651.056665,0,0,651.056665,6440.288819,6717.519685)">
            <path d="M0.416,-0.756C0.347,-0.756 0.283,-0.739 0.225,-0.704C0.167,-0.67 0.12,-0.623 0.086,-0.565C0.052,-0.507 0.034,-0.443 0.034,-0.374C0.034,-0.305 0.051,-0.241 0.086,-0.182C0.12,-0.124 0.167,-0.077 0.225,-0.043C0.283,-0.009 0.347,0.009 0.416,0.009C0.485,0.009 0.549,-0.008 0.608,-0.043C0.666,-0.077 0.713,-0.124 0.747,-0.182C0.781,-0.24 0.799,-0.304 0.799,-0.374C0.799,-0.443 0.782,-0.507 0.747,-0.565C0.713,-0.623 0.666,-0.67 0.608,-0.704C0.55,-0.738 0.486,-0.756 0.416,-0.756ZM0.416,-0.641C0.463,-0.641 0.505,-0.629 0.545,-0.605C0.584,-0.581 0.615,-0.549 0.638,-0.508C0.661,-0.467 0.672,-0.423 0.672,-0.374C0.672,-0.325 0.661,-0.281 0.638,-0.24C0.615,-0.199 0.584,-0.167 0.545,-0.143C0.506,-0.119 0.463,-0.107 0.416,-0.107C0.37,-0.107 0.327,-0.119 0.288,-0.143C0.249,-0.167 0.218,-0.199 0.195,-0.24C0.172,-0.281 0.161,-0.325 0.161,-0.374C0.161,-0.422 0.172,-0.467 0.195,-0.508C0.218,-0.549 0.249,-0.581 0.288,-0.605C0.327,-0.629 0.37,-0.641 0.416,-0.641Z" style="fill:rgb(102,102,102);fill-rule:nonzero;"/>
        </g>
        <g transform="matrix(651.056665,0,0,651.056665,6982.306209,6717.519685)">
            <path d="M0.433,-0C0.472,-0.001 0.509,-0.011 0.545,-0.029C0.58,-0.047 0.609,-0.073 0.631,-0.108C0.653,-0.143 0.664,-0.185 0.663,-0.235C0.662,-0.274 0.653,-0.309 0.635,-0.339C0.617,-0.369 0.595,-0.393 0.569,-0.412C0.543,-0.431 0.517,-0.444 0.492,-0.453C0.516,-0.467 0.536,-0.488 0.55,-0.514C0.564,-0.54 0.571,-0.568 0.57,-0.597C0.569,-0.619 0.563,-0.642 0.551,-0.666C0.539,-0.689 0.519,-0.709 0.492,-0.725C0.465,-0.741 0.43,-0.749 0.388,-0.749L0.034,-0.749L0.034,-0.001L0.433,-0.001L0.433,-0ZM0.348,-0.502L0.244,-0.502L0.244,-0.387L0.348,-0.387C0.374,-0.387 0.401,-0.382 0.431,-0.371C0.46,-0.36 0.485,-0.343 0.505,-0.319C0.525,-0.295 0.533,-0.265 0.529,-0.229C0.525,-0.193 0.511,-0.164 0.487,-0.145C0.463,-0.125 0.427,-0.115 0.382,-0.115L0.16,-0.115L0.16,-0.632L0.344,-0.632C0.371,-0.632 0.392,-0.629 0.406,-0.623C0.42,-0.617 0.429,-0.606 0.432,-0.588C0.434,-0.576 0.433,-0.563 0.427,-0.549C0.422,-0.535 0.412,-0.524 0.398,-0.515C0.384,-0.506 0.367,-0.501 0.347,-0.501L0.348,-0.502Z" style="fill:rgb(102,102,102);fill-rule:nonzero;"/>
        </g>
        <g transform="matrix(651.056665,0,0,651.056665,7417.509614,6717.519685)">
            <path d="M0.624,-0L0.761,0L0.458,-0.748L0.328,-0.748L0.025,0L0.162,0C0.162,0 0.167,-0.005 0.178,-0.015C0.188,-0.025 0.202,-0.037 0.219,-0.049C0.236,-0.062 0.257,-0.074 0.281,-0.087C0.306,-0.099 0.333,-0.109 0.365,-0.117C0.396,-0.125 0.431,-0.128 0.468,-0.126C0.505,-0.124 0.544,-0.117 0.585,-0.103L0.626,-0L0.624,-0ZM0.528,-0.243C0.491,-0.246 0.456,-0.245 0.424,-0.239C0.392,-0.233 0.364,-0.225 0.34,-0.214C0.316,-0.203 0.295,-0.19 0.277,-0.177C0.259,-0.164 0.245,-0.151 0.234,-0.139C0.223,-0.127 0.214,-0.116 0.208,-0.107C0.202,-0.098 0.199,-0.093 0.199,-0.093L0.394,-0.586L0.529,-0.243L0.528,-0.243Z" style="fill:rgb(102,102,102);fill-rule:nonzero;"/>
        </g>
        <g transform="matrix(651.056665,0,0,651.056665,7928.690824,6717.519685)">
            <path d="M0.524,-0.115L0.16,-0.115L0.16,-0.747L0.034,-0.747L0.034,0.001L0.524,0.001L0.524,-0.115Z" style="fill:rgb(102,102,102);fill-rule:nonzero;"/>
        </g>
        <g transform="matrix(651.056665,0,0,651.056665,8292.367008,6717.519685)">
            <path d="M0.114,-0.149C0.092,-0.149 0.073,-0.141 0.058,-0.126C0.042,-0.11 0.035,-0.092 0.035,-0.07C0.035,-0.048 0.043,-0.029 0.058,-0.013C0.074,0.003 0.092,0.01 0.114,0.01C0.136,0.01 0.155,0.002 0.171,-0.013C0.187,-0.029 0.194,-0.048 0.194,-0.07C0.194,-0.092 0.186,-0.111 0.171,-0.126C0.155,-0.142 0.136,-0.149 0.114,-0.149Z" style="fill:rgb(255,153,0);fill-rule:nonzero;"/>
        </g>
    </g>
</svg>
